<mxfile host="app.diagrams.net" agent="Mozilla/5.0 (Windows NT 10.0; Win64; x64) AppleWebKit/537.36 (KHTML, like Gecko) Chrome/129.0.0.0 Safari/537.36" version="24.8.0">
  <diagram name="Page-1" id="SkigJRigNg3A36J5fPUV">
    <mxGraphModel dx="2173" dy="1920" grid="1" gridSize="10" guides="1" tooltips="1" connect="1" arrows="1" fold="1" page="1" pageScale="1" pageWidth="850" pageHeight="1100" background="#999999" math="0" shadow="0">
      <root>
        <mxCell id="0" />
        <mxCell id="1" parent="0" />
        <mxCell id="YzbT-L8hGDfXFzFk-YVD-21" value="a" style="shape=ext;double=1;rounded=1;whiteSpace=wrap;html=1;textOpacity=0;opacity=20;" parent="1" vertex="1">
          <mxGeometry x="-10" y="-10" width="252.5" height="175" as="geometry" />
        </mxCell>
        <mxCell id="YzbT-L8hGDfXFzFk-YVD-18" value="" style="shape=ext;double=1;rounded=1;whiteSpace=wrap;html=1;opacity=20;" parent="1" vertex="1">
          <mxGeometry x="230" y="140" width="240" height="280" as="geometry" />
        </mxCell>
        <mxCell id="YzbT-L8hGDfXFzFk-YVD-16" value="" style="rounded=1;whiteSpace=wrap;html=1;opacity=20;" parent="1" vertex="1">
          <mxGeometry x="90" y="490" width="490" height="230" as="geometry" />
        </mxCell>
        <mxCell id="YzbT-L8hGDfXFzFk-YVD-11" value="" style="rounded=1;whiteSpace=wrap;html=1;opacity=20;" parent="1" vertex="1">
          <mxGeometry x="620" y="50" width="180" height="540" as="geometry" />
        </mxCell>
        <mxCell id="fFSCSp_Biz5DmQAELRgy-18" style="edgeStyle=orthogonalEdgeStyle;rounded=0;orthogonalLoop=1;jettySize=auto;html=1;strokeColor=#00CC00;strokeWidth=5;dashed=1;" edge="1" parent="1" source="YzbT-L8hGDfXFzFk-YVD-1" target="YzbT-L8hGDfXFzFk-YVD-5">
          <mxGeometry relative="1" as="geometry">
            <Array as="points">
              <mxPoint x="350" y="450" />
              <mxPoint x="230" y="450" />
            </Array>
          </mxGeometry>
        </mxCell>
        <mxCell id="fFSCSp_Biz5DmQAELRgy-19" style="edgeStyle=orthogonalEdgeStyle;rounded=0;orthogonalLoop=1;jettySize=auto;html=1;strokeColor=#00CC00;dashed=1;strokeWidth=5;" edge="1" parent="1" source="YzbT-L8hGDfXFzFk-YVD-1" target="YzbT-L8hGDfXFzFk-YVD-4">
          <mxGeometry relative="1" as="geometry">
            <Array as="points">
              <mxPoint x="350" y="450" />
              <mxPoint x="470" y="450" />
            </Array>
          </mxGeometry>
        </mxCell>
        <mxCell id="YzbT-L8hGDfXFzFk-YVD-1" value="" style="sketch=0;outlineConnect=0;fontColor=#232F3E;gradientColor=none;strokeColor=#ffffff;fillColor=#232F3E;dashed=0;verticalLabelPosition=middle;verticalAlign=bottom;align=center;html=1;whiteSpace=wrap;fontSize=10;fontStyle=1;spacing=3;shape=mxgraph.aws4.productIcon;prIcon=mxgraph.aws4.mq;" parent="1" vertex="1">
          <mxGeometry x="310" y="220" width="80" height="80" as="geometry" />
        </mxCell>
        <mxCell id="YzbT-L8hGDfXFzFk-YVD-2" value="" style="outlineConnect=0;dashed=0;verticalLabelPosition=bottom;verticalAlign=top;align=center;html=1;shape=mxgraph.aws3.cloudwatch;fillColor=#759C3E;gradientColor=none;" parent="1" vertex="1">
          <mxGeometry x="674" y="140" width="82.5" height="93" as="geometry" />
        </mxCell>
        <mxCell id="YzbT-L8hGDfXFzFk-YVD-4" value="&lt;font color=&quot;#ffffff&quot;&gt;Compliance Service&lt;/font&gt;" style="rounded=1;whiteSpace=wrap;html=1;fillColor=#E6E6E6;gradientColor=#000000;strokeColor=#000000;gradientDirection=north;" parent="1" vertex="1">
          <mxGeometry x="410" y="540" width="120" height="60" as="geometry" />
        </mxCell>
        <mxCell id="YzbT-L8hGDfXFzFk-YVD-5" value="&lt;font color=&quot;#ffffff&quot;&gt;Customer Notification Service&lt;/font&gt;" style="rounded=1;whiteSpace=wrap;html=1;fillColor=#CCCCCC;gradientColor=#000000;strokeColor=#000000;gradientDirection=north;" parent="1" vertex="1">
          <mxGeometry x="170" y="540" width="120" height="60" as="geometry" />
        </mxCell>
        <mxCell id="fFSCSp_Biz5DmQAELRgy-61" style="edgeStyle=orthogonalEdgeStyle;rounded=0;orthogonalLoop=1;jettySize=auto;html=1;exitX=1;exitY=0.5;exitDx=0;exitDy=0;dashed=1;strokeWidth=5;strokeColor=#00CC00;" edge="1" parent="1" source="YzbT-L8hGDfXFzFk-YVD-6" target="YzbT-L8hGDfXFzFk-YVD-1">
          <mxGeometry relative="1" as="geometry" />
        </mxCell>
        <mxCell id="YzbT-L8hGDfXFzFk-YVD-6" value="&lt;font color=&quot;#ffffff&quot;&gt;Loan Processing Service&lt;/font&gt;" style="rounded=1;whiteSpace=wrap;html=1;fillColor=#CCCCCC;gradientColor=#000000;strokeColor=#000000;gradientDirection=north;" parent="1" vertex="1">
          <mxGeometry x="56.25" y="30" width="120" height="60" as="geometry" />
        </mxCell>
        <mxCell id="YzbT-L8hGDfXFzFk-YVD-7" style="edgeStyle=orthogonalEdgeStyle;rounded=0;orthogonalLoop=1;jettySize=auto;html=1;dashed=1;strokeColor=#FF0000;strokeWidth=5;" parent="1" source="YzbT-L8hGDfXFzFk-YVD-1" target="fFSCSp_Biz5DmQAELRgy-54" edge="1">
          <mxGeometry relative="1" as="geometry">
            <mxPoint x="660" y="260" as="targetPoint" />
            <Array as="points">
              <mxPoint x="530" y="260" />
              <mxPoint x="530" y="370" />
            </Array>
          </mxGeometry>
        </mxCell>
        <mxCell id="YzbT-L8hGDfXFzFk-YVD-8" value="&lt;font style=&quot;font-size: 15px;&quot;&gt;Error Handling Retry&lt;/font&gt;" style="edgeLabel;html=1;align=center;verticalAlign=middle;resizable=0;points=[];labelBackgroundColor=#B3B3B3;fontStyle=1" parent="YzbT-L8hGDfXFzFk-YVD-7" vertex="1" connectable="0">
          <mxGeometry x="-0.3531" y="-6" relative="1" as="geometry">
            <mxPoint x="80" y="124" as="offset" />
          </mxGeometry>
        </mxCell>
        <mxCell id="YzbT-L8hGDfXFzFk-YVD-9" style="edgeStyle=orthogonalEdgeStyle;rounded=0;orthogonalLoop=1;jettySize=auto;html=1;entryX=0.1;entryY=0.5;entryDx=0;entryDy=0;entryPerimeter=0;strokeWidth=5;dashed=1;strokeColor=#00CC00;" parent="1" source="YzbT-L8hGDfXFzFk-YVD-1" target="YzbT-L8hGDfXFzFk-YVD-2" edge="1">
          <mxGeometry relative="1" as="geometry" />
        </mxCell>
        <mxCell id="YzbT-L8hGDfXFzFk-YVD-10" value="&lt;font style=&quot;font-size: 15px;&quot;&gt;Message Metrics/Alerts&lt;/font&gt;" style="edgeLabel;html=1;align=center;verticalAlign=middle;resizable=0;points=[];labelBackgroundColor=#B3B3B3;fontStyle=1" parent="1" vertex="1" connectable="0">
          <mxGeometry x="590.0014285714286" y="280" as="geometry">
            <mxPoint x="2" y="-117" as="offset" />
          </mxGeometry>
        </mxCell>
        <mxCell id="YzbT-L8hGDfXFzFk-YVD-17" value="Message Reception&amp;nbsp; and Processing Completion" style="text;strokeColor=none;align=center;fillColor=none;html=1;verticalAlign=middle;whiteSpace=wrap;rounded=0;fontStyle=1;fontSize=23;" parent="1" vertex="1">
          <mxGeometry x="252.5" y="640" width="195" height="30" as="geometry" />
        </mxCell>
        <mxCell id="YzbT-L8hGDfXFzFk-YVD-19" value="&lt;font style=&quot;font-size: 21px;&quot;&gt;Core Message Processing Hub&lt;/font&gt;" style="text;strokeColor=none;align=center;fillColor=none;html=1;verticalAlign=middle;whiteSpace=wrap;rounded=0;fontSize=15;fontStyle=1" parent="1" vertex="1">
          <mxGeometry x="225" y="351" width="130" height="30" as="geometry" />
        </mxCell>
        <mxCell id="YzbT-L8hGDfXFzFk-YVD-22" value="&lt;font style=&quot;font-size: 23px;&quot;&gt;Message Initiation&lt;/font&gt;" style="text;strokeColor=none;align=center;fillColor=none;html=1;verticalAlign=middle;whiteSpace=wrap;rounded=0;fontSize=15;fontStyle=1" parent="1" vertex="1">
          <mxGeometry x="46.25" y="121" width="140" height="30" as="geometry" />
        </mxCell>
        <mxCell id="YzbT-L8hGDfXFzFk-YVD-24" value="Error Handling and Monitoring" style="text;strokeColor=none;align=center;fillColor=none;html=1;verticalAlign=middle;whiteSpace=wrap;rounded=0;fontSize=22;fontStyle=1" parent="1" vertex="1">
          <mxGeometry x="688.25" y="510" width="60" height="30" as="geometry" />
        </mxCell>
        <mxCell id="lU9kTMsstc44mvVwPtHD-2" value="&lt;font style=&quot;font-size: 15px;&quot;&gt;Enqueue Loan Request&lt;/font&gt;" style="edgeLabel;html=1;align=center;verticalAlign=middle;resizable=0;points=[];labelBackgroundColor=#B3B3B3;fontStyle=1" parent="1" vertex="1" connectable="0">
          <mxGeometry x="630.0042857142857" y="381" as="geometry">
            <mxPoint x="-355" y="-334" as="offset" />
          </mxGeometry>
        </mxCell>
        <mxCell id="lU9kTMsstc44mvVwPtHD-3" value="&lt;font style=&quot;font-size: 15px;&quot;&gt;Loan Status Updates&lt;/font&gt;" style="edgeLabel;html=1;align=center;verticalAlign=middle;resizable=0;points=[];labelBackgroundColor=#B3B3B3;fontStyle=1" parent="1" vertex="1" connectable="0">
          <mxGeometry x="700.0042857142857" y="800" as="geometry">
            <mxPoint x="-355" y="-334" as="offset" />
          </mxGeometry>
        </mxCell>
        <mxCell id="fFSCSp_Biz5DmQAELRgy-1" value="" style="group" vertex="1" connectable="0" parent="1">
          <mxGeometry x="-160" y="190" width="180" height="340" as="geometry" />
        </mxCell>
        <mxCell id="fFSCSp_Biz5DmQAELRgy-2" value="" style="shape=ext;double=1;rounded=1;whiteSpace=wrap;html=1;opacity=20;" vertex="1" parent="fFSCSp_Biz5DmQAELRgy-1">
          <mxGeometry width="180" height="339.9999999999999" as="geometry" />
        </mxCell>
        <mxCell id="fFSCSp_Biz5DmQAELRgy-3" value="" style="endArrow=classic;html=1;rounded=0;entryX=0.833;entryY=0.83;entryDx=0;entryDy=0;entryPerimeter=0;dashed=1;strokeColor=#00CC00;strokeWidth=4;" edge="1" parent="fFSCSp_Biz5DmQAELRgy-1">
          <mxGeometry width="50" height="50" relative="1" as="geometry">
            <mxPoint x="45.03" y="69.99678220140515" as="sourcePoint" />
            <mxPoint x="134.97000000000028" y="70.02604449648712" as="targetPoint" />
          </mxGeometry>
        </mxCell>
        <mxCell id="fFSCSp_Biz5DmQAELRgy-4" value="" style="endArrow=classic;html=1;rounded=0;entryX=0.833;entryY=0.83;entryDx=0;entryDy=0;entryPerimeter=0;strokeColor=#FF0000;dashed=1;strokeWidth=4;" edge="1" parent="fFSCSp_Biz5DmQAELRgy-1">
          <mxGeometry width="50" height="50" relative="1" as="geometry">
            <mxPoint x="45" y="160.00003278688519" as="sourcePoint" />
            <mxPoint x="135" y="160.00003278688519" as="targetPoint" />
          </mxGeometry>
        </mxCell>
        <mxCell id="fFSCSp_Biz5DmQAELRgy-11" value="&lt;b&gt;&lt;font style=&quot;font-size: 15px;&quot;&gt;Success&amp;nbsp;&lt;/font&gt;&lt;/b&gt;" style="text;strokeColor=none;align=center;fillColor=none;html=1;verticalAlign=middle;whiteSpace=wrap;rounded=0;" vertex="1" parent="fFSCSp_Biz5DmQAELRgy-1">
          <mxGeometry x="63" y="90.00279937548788" width="60" height="16.721311475409834" as="geometry" />
        </mxCell>
        <mxCell id="fFSCSp_Biz5DmQAELRgy-12" value="&lt;b&gt;&lt;font style=&quot;font-size: 15px;&quot;&gt;Error&amp;nbsp;&lt;/font&gt;&lt;/b&gt;" style="text;strokeColor=none;align=center;fillColor=none;html=1;verticalAlign=middle;whiteSpace=wrap;rounded=0;" vertex="1" parent="fFSCSp_Biz5DmQAELRgy-1">
          <mxGeometry x="60" y="170.0044699453552" width="60" height="16.721311475409834" as="geometry" />
        </mxCell>
        <mxCell id="fFSCSp_Biz5DmQAELRgy-13" value="&lt;b style=&quot;&quot;&gt;&lt;font style=&quot;font-size: 23px;&quot;&gt;LEGEND&lt;/font&gt;&lt;/b&gt;" style="text;strokeColor=none;align=center;fillColor=none;html=1;verticalAlign=middle;whiteSpace=wrap;rounded=0;fontSize=18;" vertex="1" parent="fFSCSp_Biz5DmQAELRgy-1">
          <mxGeometry x="63" y="19.9966557377049" width="60" height="16.721311475409834" as="geometry" />
        </mxCell>
        <mxCell id="fFSCSp_Biz5DmQAELRgy-56" value="" style="sketch=0;pointerEvents=1;shadow=0;dashed=0;html=1;strokeColor=none;fillColor=#DF8C42;labelPosition=center;verticalLabelPosition=bottom;verticalAlign=top;align=center;outlineConnect=0;shape=mxgraph.veeam2.encrypted;" vertex="1" parent="fFSCSp_Biz5DmQAELRgy-1">
          <mxGeometry x="74.75" y="220" width="30.5" height="34" as="geometry" />
        </mxCell>
        <mxCell id="fFSCSp_Biz5DmQAELRgy-57" value="&lt;b&gt;&lt;font style=&quot;font-size: 15px;&quot;&gt;Encryption&lt;/font&gt;&lt;/b&gt;" style="text;strokeColor=none;align=center;fillColor=none;html=1;verticalAlign=middle;whiteSpace=wrap;rounded=0;" vertex="1" parent="fFSCSp_Biz5DmQAELRgy-1">
          <mxGeometry x="60" y="269.9968508977361" width="60" height="16.721311475409834" as="geometry" />
        </mxCell>
        <mxCell id="fFSCSp_Biz5DmQAELRgy-24" value="&lt;b&gt;&lt;font style=&quot;font-size: 20px;&quot;&gt;CloudWatch Logs&lt;/font&gt;&lt;/b&gt;" style="text;strokeColor=none;align=center;fillColor=none;html=1;verticalAlign=middle;whiteSpace=wrap;rounded=0;" vertex="1" parent="1">
          <mxGeometry x="685.25" y="241.75" width="60" height="30" as="geometry" />
        </mxCell>
        <mxCell id="fFSCSp_Biz5DmQAELRgy-30" value="&lt;b&gt;&lt;font style=&quot;font-size: 20px;&quot;&gt;Lambda&lt;/font&gt;&lt;/b&gt;" style="text;strokeColor=none;align=center;fillColor=none;html=1;verticalAlign=middle;whiteSpace=wrap;rounded=0;" vertex="1" parent="1">
          <mxGeometry x="674" y="410" width="81.75" height="30" as="geometry" />
        </mxCell>
        <mxCell id="fFSCSp_Biz5DmQAELRgy-32" value="&lt;b&gt;&lt;font style=&quot;font-size: 20px;&quot;&gt;MQ&lt;/font&gt;&lt;/b&gt;" style="text;strokeColor=none;align=center;fillColor=none;html=1;verticalAlign=middle;whiteSpace=wrap;rounded=0;" vertex="1" parent="1">
          <mxGeometry x="250" y="245" width="60" height="30" as="geometry" />
        </mxCell>
        <mxCell id="fFSCSp_Biz5DmQAELRgy-34" value="" style="sketch=0;pointerEvents=1;shadow=0;dashed=0;html=1;strokeColor=none;fillColor=#DF8C42;labelPosition=center;verticalLabelPosition=bottom;verticalAlign=top;align=center;outlineConnect=0;shape=mxgraph.veeam2.encrypted;" vertex="1" parent="1">
          <mxGeometry x="199" y="469" width="21" height="21" as="geometry" />
        </mxCell>
        <mxCell id="fFSCSp_Biz5DmQAELRgy-46" value="" style="sketch=0;pointerEvents=1;shadow=0;dashed=0;html=1;strokeColor=none;fillColor=#DF8C42;labelPosition=center;verticalLabelPosition=bottom;verticalAlign=top;align=center;outlineConnect=0;shape=mxgraph.veeam2.encrypted;" vertex="1" parent="1">
          <mxGeometry x="360" y="100" width="21" height="21" as="geometry" />
        </mxCell>
        <mxCell id="fFSCSp_Biz5DmQAELRgy-48" value="" style="sketch=0;pointerEvents=1;shadow=0;dashed=0;html=1;strokeColor=none;fillColor=#DF8C42;labelPosition=center;verticalLabelPosition=bottom;verticalAlign=top;align=center;outlineConnect=0;shape=mxgraph.veeam2.encrypted;" vertex="1" parent="1">
          <mxGeometry x="540" y="212" width="21" height="21" as="geometry" />
        </mxCell>
        <mxCell id="fFSCSp_Biz5DmQAELRgy-50" value="" style="sketch=0;pointerEvents=1;shadow=0;dashed=0;html=1;strokeColor=none;fillColor=#DF8C42;labelPosition=center;verticalLabelPosition=bottom;verticalAlign=top;align=center;outlineConnect=0;shape=mxgraph.veeam2.encrypted;" vertex="1" parent="1">
          <mxGeometry x="540" y="319" width="21" height="21" as="geometry" />
        </mxCell>
        <mxCell id="fFSCSp_Biz5DmQAELRgy-52" value="" style="sketch=0;pointerEvents=1;shadow=0;dashed=0;html=1;strokeColor=none;fillColor=#DF8C42;labelPosition=center;verticalLabelPosition=bottom;verticalAlign=top;align=center;outlineConnect=0;shape=mxgraph.veeam2.encrypted;" vertex="1" parent="1">
          <mxGeometry x="479.5" y="469" width="21" height="21" as="geometry" />
        </mxCell>
        <mxCell id="fFSCSp_Biz5DmQAELRgy-54" value="" style="outlineConnect=0;dashed=0;verticalLabelPosition=bottom;verticalAlign=top;align=center;html=1;shape=mxgraph.aws3.lambda_function;fillColor=#F58534;gradientColor=none;" vertex="1" parent="1">
          <mxGeometry x="680.75" y="330" width="69" height="72" as="geometry" />
        </mxCell>
        <mxCell id="fFSCSp_Biz5DmQAELRgy-65" value="&lt;font color=&quot;#000000&quot; style=&quot;font-size: 23px;&quot;&gt;VPC&lt;/font&gt;" style="sketch=0;outlineConnect=0;gradientColor=none;html=1;whiteSpace=wrap;fontSize=12;fontStyle=0;shape=mxgraph.aws4.group;grIcon=mxgraph.aws4.group_vpc;strokeColor=#000000;fillColor=none;verticalAlign=top;align=left;spacingLeft=30;fontColor=#879196;dashed=0;strokeWidth=7;" vertex="1" parent="1">
          <mxGeometry x="-350" y="-40" width="1330" height="780" as="geometry" />
        </mxCell>
      </root>
    </mxGraphModel>
  </diagram>
</mxfile>
